<?xml version="1.0" encoding="utf-8"?>
<!-- Generator: Adobe Illustrator 15.0.0, SVG Export Plug-In . SVG Version: 6.00 Build 0)  -->
<!DOCTYPE svg PUBLIC "-//W3C//DTD SVG 1.1//EN" "http://www.w3.org/Graphics/SVG/1.1/DTD/svg11.dtd">
<svg version="1.1" id="Layer_1" xmlns="http://www.w3.org/2000/svg" xmlns:xlink="http://www.w3.org/1999/xlink" x="0px" y="0px"
	 width="756px" height="142px" viewBox="0 0 756 142" enable-background="new 0 0 756 142" xml:space="preserve">
<path fill="#212F4B" d="M71.19,40.024c-0.341,0-0.384,0.087-0.384,0.342v0.937c0,0.3,0.044,0.384,0.299,0.384h2.004
	c1.321,0,1.619,0.681,1.619,2.174v10.146c0,5.583,0.169,8.441,0.683,10.359c0.682,2.687,2.173,4.562,5.071,5.712
	c1.407,0.598,3.539,0.895,5.755,0.895c3.708,0,6.311-0.98,8.016-2.559c2.388-2.045,3.324-4.73,3.58-8.226
	c0.128-1.662,0.213-9.122,0.213-9.72c0-0.597,0.002-6.65,0.086-7.075c0.13-0.512,0.256-1.707,1.833-1.707h1.747
	c0.215,0,0.256-0.171,0.256-0.427v-0.935c0-0.129-0.042-0.301-0.427-0.301c-0.383,0-1.747,0.128-4.688,0.128
	c-2.856,0-4.816-0.128-5.242-0.128c-0.258,0-0.299,0.087-0.299,0.301v1.022c0,0.212,0.041,0.339,0.299,0.339h1.875
	c1.108,0,1.792,0.769,1.918,1.878c0.13,1.064,0.214,3.536,0.214,6.776v9.122c0,3.156-0.556,5.714-2.217,7.502
	c-1.493,1.537-3.966,2.346-6.395,2.346c-2.472,0-5.201-0.768-6.779-3.068c-0.978-1.449-1.318-3.453-1.36-5.416
	c-0.044-1.361-0.216-6.775-0.216-9.037v-2.812c0-2.175,0.044-5.161,0.085-5.541c0.085-0.939,0.812-1.75,2.046-1.75h2.135
	c0.297,0,0.339-0.083,0.339-0.296v-1.11c0-0.169-0.043-0.256-0.385-0.256c-0.468,0-2.515,0.128-5.838,0.128
	c-3.327,0-5.416-0.128-5.84-0.128H71.19z M204.494,46.27c-1.67,0-3.149,0.421-4.354,1.392c-1.02,0.88-1.992,2.317-1.992,3.892
	c0,2.27,0.557,3.751,1.622,4.771c1.39,1.249,3.611,2.081,4.537,2.406c2.455,0.927,4.263,2.084,4.263,4.726
	c0,1.991-2.225,3.147-3.707,3.147c-1.714,0-3.243-0.925-3.936-2.313c-0.835-1.53-0.832-2.502-0.832-3.15
	c0-0.187-0.186-0.279-0.37-0.325l-0.835-0.09c-0.185,0-0.279,0.138-0.324,0.325c-0.048,0.739-0.37,4.441-0.51,5.738
	c-0.047,0.232,0.09,0.42,0.37,0.513c0.369,0.093,0.602,0,0.696-0.232l0.138-0.372c0.093-0.37,0.37-0.324,0.695-0.093
	c1.064,0.833,2.684,1.622,5.048,1.622c4.213,0,6.436-2.964,6.436-6.437c0-2.317-0.556-3.475-1.48-4.448
	c-1.159-1.203-2.871-1.713-5.001-2.499c-0.88-0.324-2.549-1.02-3.243-1.899c-0.51-0.602-0.739-1.575-0.739-2.269
	c0-0.835,0.739-2.826,3.288-2.826c1.341,0,2.36,0.465,3.057,1.252c0.972,1.11,1.342,2.731,1.621,3.288
	c0.046,0.138,0.137,0.23,0.275,0.186l0.835-0.186c0.139-0.047,0.188-0.142,0.188-0.279c-0.047-0.65-0.465-3.66-0.465-5.188
	c0-0.23-0.048-0.414-0.418-0.414c-0.371,0-0.51,0.001-0.6,0.137l-0.185,0.325c-0.095,0.233-0.326,0.184-0.79-0.093
	C207.226,46.595,206.252,46.27,204.494,46.27L204.494,46.27z M224.571,46.595c-0.14-0.016-0.12-0.018-0.178,0.023
	c-0.058,0.039-0.066,0.085-0.085,0.159c-0.377,1.4-1.181,4.255-1.449,5.098c-0.045,0.185-0.046,0.37,0.186,0.465l0.834,0.324
	c0.186,0.093,0.325-0.047,0.418-0.232c0.602-1.203,1.574-2.685,2.731-3.565c1.714-0.464,4.313-0.417,5.194-0.417v9.958
	c0,2.777,0,5.233-0.14,6.993c-0.046,0.371-0.37,0.74-1.064,0.74h-1.852c-0.188,0-0.277,0.093-0.277,0.324v0.925
	c0,0.278,0.092,0.417,0.369,0.417c0.37,0,3.382-0.14,4.679-0.14c1.526,0,4.398,0.14,4.723,0.14c0.231,0,0.325-0.137,0.325-0.277
	v-0.972c0-0.277-0.094-0.417-0.325-0.417h-1.759c-0.742,0-0.973-0.463-1.064-1.205c-0.047-0.37-0.048-3.842-0.048-8.705v-7.781
	c0.835,0,4.223,0.045,5.381,0.462c0.971,0.88,1.758,2.407,2.314,3.566c0.094,0.231,0.232,0.279,0.51,0.187l0.787-0.232
	c0.185-0.091,0.278-0.187,0.232-0.372c-0.148-0.797-0.522-2.439-0.799-3.696c0.418,0.031,1.075,0.156,1.468,0.548
	c0.741,0.694,6.392,8.985,6.81,9.818v1.669c0,2.732-0.002,4.398-0.048,4.818c-0.046,0.647-0.326,0.925-1.807,0.925h-0.694
	c-0.186,0-0.278,0.139-0.278,0.277v1.02c0,0.274,0.092,0.37,0.323,0.37c0.278,0,2.965-0.142,3.983-0.142
	c1.529,0,4.122,0.142,4.4,0.142c0.277,0,0.372-0.141,0.372-0.326v-1.108c0-0.141-0.094-0.232-0.325-0.232h-0.602
	c-0.831,0-1.574-0.048-1.667-1.02c-0.093-0.557-0.048-1.807-0.093-2.964v-3.891c1.066-1.621,6.437-9.172,7.131-9.541
	c0.418-0.232,0.928-0.37,1.667-0.37h0.465c0.185,0,0.277-0.095,0.277-0.325V47.06c0-0.28-0.09-0.37-0.325-0.37
	c-0.274,0-1.896,0.138-2.731,0.138c-1.387,0-3.705-0.138-3.983-0.138c-0.231,0-0.323,0.138-0.323,0.322v1.02
	c0,0.186,0.092,0.325,0.323,0.325h0.742c1.02,0,0.973,0.601,0.601,1.342c-0.186,0.37-4.027,5.977-4.723,7.135
	c-0.74-1.112-4.586-7.273-4.865-7.689c-0.185-0.277-0.138-0.787,0.697-0.787h0.695c0.277,0,0.324-0.14,0.324-0.325v-1.02
	c0-0.232-0.14-0.322-0.324-0.322c-0.325,0-3.474,0.138-4.493,0.138c-1.111,0-6.553-0.066-7.44-0.043
	c-1.766,0.072-3.396,0.135-4.909,0.135h-1.85C227.924,46.919,225.293,46.675,224.571,46.595L224.571,46.595z M125.377,46.689
	c-0.185,0-0.274,0.093-0.274,0.277v1.064c0,0.186,0.044,0.325,0.274,0.325h0.835c1.945,0,2.364,0.462,2.364,0.972
	c0,0.647,0.09,5.279,0.09,6.021v2.039c0,1.573-0.044,7.455-0.09,7.874c-0.094,0.831-0.834,0.879-1.992,0.879h-1.02
	c-0.185,0-0.277,0.14-0.277,0.277v1.02c0,0.23,0.093,0.369,0.277,0.369c0.278,0,2.965-0.14,4.538-0.14
	c2.086,0,4.494,0.14,4.865,0.14c0.231,0,0.277-0.139,0.277-0.324v-1.11c0-0.139-0.046-0.231-0.277-0.231h-0.696
	c-1.344,0-1.898-0.648-1.992-1.714c-0.046-0.695-0.045-6.02-0.045-6.297v-2.316c0-0.325,0.045-5.838,0.045-6.3
	c0.049-0.974,0.464-1.157,1.715-1.157h0.789c0.231,0,0.277-0.14,0.277-0.325v-1.109c0-0.14-0.093-0.232-0.277-0.232
	c-0.371,0-2.735,0.138-4.078,0.138C128.53,46.874,125.657,46.689,125.377,46.689L125.377,46.689z M136.841,46.689
	c-0.186,0-0.277,0.091-0.277,0.229v1.157c0,0.139,0.046,0.28,0.23,0.28h0.465c0.601,0,0.971,0.37,1.342,0.88
	c0.325,0.462,1.716,4.675,2.502,6.806l0.324,1.02c0.37,1.019,2.823,7.734,3.843,10.466c0.14,0.372,0.369,0.697,0.739,0.697
	c0.372,0,0.604-0.141,0.742-0.373c0.371-0.601,4.171-9.678,4.586-10.65c0.465-1.204,2.964-7.271,3.843-8.15
	c0.42-0.42,1.067-0.694,1.947-0.694h0.643h0.097h0.365c1.854,0,2.132,0.185,2.27,1.157c0.047,0.463,0.092,3.474,0.092,5.929v2.871
	v6.994c0,0.648-0.139,0.833-2.316,0.833h-0.415c-0.232,0-0.324,0.092-0.324,0.277v1.064c0,0.185,0.045,0.324,0.277,0.324
	c0.556,0,3.104-0.14,3.938-0.14c9.727,0,12.18,0.14,12.505,0.14c0.185,0,0.416-0.23,0.51-0.465l1.666-4.907
	c0.048-0.138-0.047-0.276-0.14-0.323l-0.742-0.417c-0.14-0.093-0.37-0.045-0.6,0.277c-0.465,0.742-2.087,2.826-2.456,3.104
	c-1.575,1.252-2.873,1.297-4.911,1.297c-1.99,0-3.333-0.139-3.333-2.316c0-0.601-0.093-3.289-0.093-4.91v-1.574
	c0.465,0,2.084,0.002,3.474,0.325c1.204,0.278,1.484,1.021,1.714,2.176c0.048,0.187,0.141,0.186,0.277,0.186l0.975-0.093
	c0.138,0,0.23-0.044,0.23-0.229c-0.045-0.604-0.186-2.041-0.186-3.058c0-0.417,0-2.874,0.093-3.289
	c0.048-0.186-0.093-0.277-0.277-0.277l-1.02-0.047c-0.185,0-0.229,0.046-0.229,0.232c0,1.437-0.465,2.083-1.67,2.406
	c-0.37,0.094-3.102,0.234-3.381,0.234v-7.876l4.91,0.095c0.463,0,1.205,0.185,1.76,0.694c0.787,0.74,3.011,3.334,3.104,3.474
	c0.14,0.23,0.325,0.23,0.415,0.185l0.742-0.324c0.092-0.047,0.092-0.14,0.047-0.325c-0.096-0.324-1.392-4.306-1.484-4.723
	c-0.092-0.555-0.185-0.647-0.277-0.647c-0.185,0-0.787,0.093-1.252,0.093l-10.373,0.045h-7.082c-1.064,0-3.474-0.138-3.75-0.138
	c-0.186,0-0.277,0.138-0.277,0.277v1.064c0,0.231,0.092,0.325,0.277,0.325h0.509c0.787,0,0.972,0.231,0.972,0.462
	c0,0.465-0.6,1.713-2.361,6.854c-0.231,0.695-2.501,6.438-2.777,7.412h-0.14c-0.279-0.741-1.991-6.116-2.362-7.271
	c-1.25-3.892-2.039-5.696-2.039-6.763c0-0.604,0.698-0.694,1.3-0.694h1.064c0.185,0,0.325-0.095,0.325-0.28v-1.064
	c0-0.229-0.094-0.322-0.37-0.322c-0.278,0-3.105,0.138-4.216,0.138c-1.203,0-3.751-0.138-3.983-0.138H136.841z M177.058,46.689
	c-0.188,0-0.277,0.09-0.277,0.229v1.112c0,0.186,0.045,0.325,0.185,0.325h0.465c1.296,0,1.712,0.509,1.76,1.435v4.445v2.873
	c-0.048,2.826,0,5.559-0.048,7.826c0,1.02-0.556,1.205-1.667,1.205h-0.555c-0.188,0-0.279,0.09-0.279,0.229v1.067
	c0,0.232,0.092,0.372,0.279,0.372c0.324,0,2.687-0.14,3.844-0.14c1.528,0,4.028,0.14,4.354,0.14c0.277,0,0.372-0.094,0.372-0.325
	V66.37c0-0.14-0.093-0.229-0.28-0.229h-1.204c-0.926,0-1.202-0.51-1.295-1.16v-5v-1.112c0.322-0.094,0.74-0.093,1.202-0.093
	c1.945,0,2.641,1.019,4.309,3.892c0.415,0.693,2.454,4.447,3.333,5.095c0.79-0.047,1.902-0.092,2.967-0.092
	c0.462,0,1.017,0.045,1.435,0.045c0.462,0.047,0.832,0.095,0.927,0.095c0.185,0,0.277-0.14,0.277-0.325v-0.927
	c0-0.276-0.045-0.417-0.229-0.417c-0.835,0-1.438-0.047-2.087-0.51c-0.88-0.65-1.944-2.038-2.594-2.964
	c-1.899-2.687-2.824-4.122-3.889-4.354v-0.095c3.658-1.296,5.465-3.146,5.465-6.342c0-1.066-0.604-2.408-1.621-3.381
	c-1.16-1.02-3.241-1.807-6.021-1.807c-0.603,0-4.633,0.138-5.188,0.138C180.163,46.827,177.291,46.689,177.058,46.689
	L177.058,46.689z M212.431,46.689c-0.185,0-0.274,0.093-0.274,0.277v1.064c0,0.186,0.044,0.325,0.274,0.325h0.835
	c1.944,0,2.364,0.462,2.364,0.972c0,0.647,0.09,5.279,0.09,6.021v2.039c0,1.573-0.045,7.455-0.09,7.874
	c-0.095,0.831-0.837,0.879-1.994,0.879h-1.02c-0.186,0-0.275,0.14-0.275,0.277v1.02c0,0.23,0.09,0.369,0.275,0.369
	c0.278,0,2.966-0.14,4.54-0.14c2.084,0,4.492,0.14,4.862,0.14c0.23,0,0.277-0.139,0.277-0.324v-1.11
	c0-0.139-0.047-0.231-0.277-0.231h-0.695c-1.343,0-1.897-0.648-1.99-1.714c-0.046-0.695-0.045-6.02-0.045-6.297v-2.316
	c0-0.325,0.045-5.838,0.045-6.3c0.046-0.974,0.463-1.157,1.713-1.157h0.787c0.231,0,0.277-0.14,0.277-0.325v-1.109
	c0-0.14-0.091-0.232-0.277-0.232c-0.369,0-2.732,0.138-4.074,0.138C215.583,46.874,212.71,46.689,212.431,46.689L212.431,46.689z
	 M184.095,48.171c1.854,0,3.151,0.417,4.4,1.205c0.835,0.555,1.529,1.804,1.529,3.196c0,1.203-0.787,4.814-5.93,4.814
	c-0.601,0-1.064-0.047-1.387-0.092v-8.106C182.708,48.355,183.401,48.171,184.095,48.171L184.095,48.171z M98.769,70.026
	c-3.898,0-6.682,5.014-6.682,8.706c0,2.228,1.407,3.782,3.019,3.782c4.251,0,6.8-5.833,6.8-9.058
	C101.906,71.466,100.732,70.026,98.769,70.026L98.769,70.026z M99.267,71.375c0.967,0,1.496,0.731,1.465,1.642
	c0,1.935-3.016,8.09-6.064,8.09c-0.705,0-1.35-0.557-1.35-1.494c0-1.38,0.702-3.166,1.697-4.749
	C96.481,72.488,98.037,71.375,99.267,71.375L99.267,71.375z M245.036,73.253c-0.277,0-0.463,0.138-0.558,0.323
	c-0.415,0.371-1.713,1.204-2.594,1.344c-0.415,0.092-0.509,0.231-0.462,0.325c-0.047,0.139,0.092,0.371,0.185,0.462
	c0.325,0.141,0.048,0.65-0.047,0.928c-0.275,0.787-3.009,7.087-3.334,7.734c-1.109,2.317-3.474,7.873-3.799,8.243
	c-0.369,0.51-1.109,0.973-1.898,0.973h-0.534c-1.344,0-1.899-0.647-1.991-1.712c-0.045-0.694-0.048-6.021-0.048-6.3v-2.314
	c0-0.324,0.048-5.836,0.048-6.3c0.047-0.972,0.462-1.157,1.712-1.157h0.789c0.231,0,0.277-0.14,0.277-0.324v-1.112
	c0-0.14-0.092-0.232-0.277-0.232c-0.369,0-2.733,0.138-4.078,0.138c-2.175,0.048-5.047-0.138-5.325-0.138
	c-0.185,0-0.277,0.093-0.277,0.277v1.067c0,0.185,0.048,0.324,0.277,0.324h0.832c1.947,0,2.364,0.463,2.364,0.973
	c0,0.648,0.093,5.279,0.093,6.02v2.037c0,1.575-0.046,7.457-0.093,7.877c-0.093,0.831-0.833,0.877-1.992,0.877h-1.02
	c-0.185,0-0.277,0.138-0.277,0.277v1.021c0,0.23,0.093,0.37,0.277,0.37c0.279,0,2.967-0.14,4.541-0.14h7.665
	c0.742,0,3.196,0.14,3.566,0.14c0.232,0,0.28-0.14,0.28-0.324v-1.02c0-0.188-0.048-0.325-0.325-0.325h-1.157
	c-0.975,0-1.109-0.603-0.835-1.527c0.186-0.556,1.667-4.4,1.853-4.955h7.457c0.369,1.064,1.621,4.77,1.807,5.695
	c0,0.37-0.188,0.787-0.742,0.787h-0.74c-0.185,0-0.229,0.138-0.229,0.277v0.975c0,0.185,0.045,0.417,0.369,0.417
	c0.602,0,3.334-0.14,4.214-0.14c1.064,0,3.52,0.14,4.078,0.14c0.276,0,0.322-0.278,0.322-0.417v-0.975
	c0-0.14-0.047-0.277-0.232-0.277h-0.88c-0.787,0-1.571-0.417-2.176-1.25c-0.323-0.463-2.314-5.929-3.009-8.244
	c-0.603-1.853-2.967-8.476-3.614-10.33C245.406,73.438,245.313,73.253,245.036,73.253L245.036,73.253z M177.796,73.716
	c-3.288,0-6.113,0.973-8.291,2.826c-2.223,1.944-3.429,4.771-3.429,7.595c0,3.613,0.929,6.113,2.778,8.151
	c2.179,2.409,5.884,3.384,8.291,3.384c2.964,0,5.468-0.651,7.922-1.854c0.323-0.14,0.507-0.28,0.507-0.51
	c0-0.231-0.138-0.509-0.138-0.925v-3.568c0-0.787,0.88-0.973,1.343-0.973h0.787c0.14,0,0.232-0.137,0.232-0.277v-1.111
	c0-0.139-0.093-0.23-0.278-0.23c-0.185,0-2.268,0.093-3.982,0.093c-2.5,0-4.772-0.093-5.05-0.093c-0.186,0-0.229,0.093-0.229,0.23
	v1.111c0,0.141,0.045,0.232,0.229,0.232h1.114c1.203,0,2.267,0.321,2.267,1.388V90.9c0,0.927-0.091,1.527-0.694,1.992
	c-0.741,0.601-2.222,1.018-3.844,1.018c-1.295,0-3.147-0.696-4.443-2.085c-1.808-1.9-2.828-4.538-2.828-8.104
	c0-2.083,1.021-4.541,2.409-6.067c1.715-1.854,3.521-2.362,4.958-2.362c2.129,0,3.427,0.925,4.675,2.222
	c1.111,1.111,1.899,2.547,2.225,3.289c0.136,0.37,0.232,0.416,0.372,0.37l0.877-0.277c0.139-0.047,0.188-0.139,0.188-0.37
	c-0.094-0.835-0.694-5.142-0.694-5.373c0-0.324-0.094-0.51-0.51-0.51c-0.371,0-0.51,0.14-0.603,0.325l-0.232,0.415
	c-0.091,0.14-0.278,0.14-0.649-0.186C182.194,74.552,180.019,73.716,177.796,73.716L177.796,73.716z M136.533,74.133
	c-0.186,0-0.275,0.093-0.275,0.277v1.067c0,0.185,0.045,0.324,0.275,0.324h0.834c1.944,0,2.364,0.463,2.364,0.973
	c0,0.648,0.09,5.279,0.09,6.02v2.037c0,1.575-0.045,7.458-0.09,7.877c-0.095,0.831-0.835,0.877-1.991,0.877h-1.021
	c-0.185,0-0.277,0.138-0.277,0.277v1.021c0,0.23,0.093,0.37,0.277,0.37c0.28,0,2.963-0.14,4.538-0.14c2.085,0,4.496,0.14,4.866,0.14
	c0.229,0,0.274-0.14,0.274-0.324v-1.112c0-0.14-0.045-0.232-0.274-0.232h-0.697c-1.344,0-1.898-0.647-1.992-1.712
	c-0.045-0.694-0.045-6.021-0.045-6.3v-2.314c0-0.324,0.045-5.836,0.045-6.3c0.048-0.972,0.465-1.157,1.715-1.157h0.789
	c0.23,0,0.275-0.14,0.275-0.324v-1.112c0-0.139-0.09-0.232-0.275-0.232c-0.37,0-2.733,0.138-4.078,0.138
	C139.683,74.318,136.812,74.133,136.533,74.133L136.533,74.133z M147.994,74.133c-0.185,0-0.277,0.093-0.277,0.232v1.109
	c0,0.186,0.045,0.325,0.186,0.325h0.462c1.296,0,1.716,0.51,1.762,1.437v4.446v2.873c-0.046,2.824-0.002,5.557-0.048,7.827
	c0,1.019-0.56,1.202-1.669,1.202h-0.555c-0.185,0-0.277,0.093-0.277,0.232v1.064c0,0.232,0.093,0.372,0.277,0.372
	c0.325,0,2.686-0.14,3.844-0.14c1.529,0,4.031,0.14,4.355,0.14c0.278,0,0.37-0.095,0.37-0.324v-1.112
	c0-0.14-0.093-0.232-0.277-0.232h-1.205c-0.927,0-1.203-0.508-1.297-1.157v-5.003v-1.112c0.325-0.092,0.74-0.092,1.204-0.092
	c1.944,0,2.637,1.02,4.307,3.891c0.417,0.694,2.455,4.449,3.336,5.096c0.787-0.047,1.896-0.093,2.962-0.093
	c0.465,0,1.02,0.048,1.438,0.048c0.463,0.045,0.833,0.092,0.925,0.092c0.186,0,0.279-0.14,0.279-0.324v-0.928
	c0-0.278-0.046-0.417-0.232-0.417c-0.831,0-1.435-0.045-2.084-0.508c-0.88-0.649-1.945-2.041-2.594-2.966
	c-1.9-2.687-2.825-4.121-3.891-4.354v-0.092c3.659-1.296,5.465-3.149,5.465-6.346c0-1.066-0.601-2.406-1.622-3.381
	c-1.158-1.019-3.239-1.807-6.02-1.807c-0.602,0-4.631,0.138-5.187,0.138C151.095,74.271,148.224,74.133,147.994,74.133
	L147.994,74.133z M187.076,74.133c-0.187,0-0.277,0.093-0.277,0.277v1.067c0,0.185,0.045,0.324,0.277,0.324h0.835
	c1.944,0,2.36,0.463,2.36,0.973c0,0.648,0.092,5.279,0.092,6.02v2.037c0,1.575-0.046,7.458-0.092,7.877
	c-0.093,0.831-0.833,0.877-1.991,0.877h-1.02c-0.186,0-0.277,0.138-0.277,0.277v1.021c0,0.23,0.092,0.37,0.277,0.37
	c0.277,0,2.964-0.14,4.54-0.14c2.083,0,4.491,0.14,4.862,0.14c0.232,0,0.277-0.14,0.277-0.324v-1.112
	c0-0.14-0.045-0.232-0.277-0.232h-0.694c-1.343,0-1.9-0.647-1.994-1.712c-0.045-0.694-0.045-6.021-0.045-6.3v-2.314
	c0-0.324,0.045-5.836,0.045-6.3c0.049-0.972,0.466-1.157,1.717-1.157h0.787c0.232,0,0.277-0.14,0.277-0.324v-1.112
	c0-0.139-0.093-0.232-0.277-0.232c-0.37,0-2.732,0.138-4.076,0.138c-2.175,0.044-5.049-0.142-5.326-0.142V74.133z M198.536,74.133
	c-0.185,0-0.277,0.138-0.277,0.277v1.112c0,0.185,0.093,0.277,0.277,0.277h0.418c1.298,0,2.454,0.788,2.454,2.454v4.865
	c0,5.234-0.092,8.522-0.138,9.079c-0.139,1.064-0.88,1.387-1.345,1.387h-1.064c-0.139,0-0.185,0.047-0.185,0.14v1.205
	c0,0.229,0.045,0.324,0.137,0.324c0.371,0,2.456-0.14,3.104-0.14c1.343,0,3.196,0.14,3.521,0.14c0.231,0,0.23-0.095,0.23-0.279
	v-1.11c0-0.187,0.001-0.279-0.23-0.279h-0.975c-0.461,0-0.971-0.508-1.109-1.572c-0.093-0.418-0.277-5.05-0.277-7.829v-6.345h0.093
	c0.74,0.833,4.491,5.836,5.603,7.132c0.51,0.603,2.501,2.963,4.631,5.511c1.9,2.271,3.475,4.168,3.798,4.493
	c0.186,0.14,0.651,0.465,1.067,0.465c0.555,0,0.693-0.465,0.693-0.88V83.722c0-1.898-0.092-4.817,0.14-6.947
	c0.093-0.649,0.325-0.975,1.48-0.975h0.462c0.186,0,0.279-0.14,0.279-0.325v-0.972c0-0.277-0.093-0.37-0.325-0.37
	c-0.323,0-1.941,0.138-2.915,0.138c-1.482,0-3.474-0.138-3.798-0.138c-0.231,0-0.325,0.093-0.325,0.232v1.109
	c0,0.232,0.094,0.325,0.325,0.325h0.787c0.786,0,1.48,0.279,1.711,0.835c0.232,0.556,0.372,3.242,0.372,4.353
	c0.094,1.483,0.138,2.918,0.138,5.558v3.059h-0.186c-0.555-0.604-4.86-6.023-5.693-6.994c-0.974-1.158-6.302-7.874-6.44-8.06
	c-0.186-0.278-0.461-0.369-1.109-0.369c-0.556,0-1.529,0.09-2.271,0.09c-0.509,0-1.249-0.044-1.852-0.09
	C199.139,74.181,198.628,74.133,198.536,74.133L198.536,74.133z M155.301,75.615c1.854,0,3.149,0.418,4.398,1.204
	c0.833,0.556,1.529,1.805,1.529,3.196c0,1.202-0.786,4.815-5.928,4.815c-0.603,0-1.066-0.045-1.392-0.09v-8.106
	C153.91,75.801,154.607,75.615,155.301,75.615L155.301,75.615z M243.139,77.189c0.137,0,0.184,0.186,0.274,0.465
	c0.094,0.371,2.271,7.316,2.457,7.966h-6.3c0.229-0.464,3.059-7.55,3.195-7.921C242.907,77.329,242.999,77.189,243.139,77.189z
	 M100.818,46.688c-0.186,0-0.277,0.138-0.277,0.277v1.112c0,0.185,0.092,0.277,0.277,0.277h0.414c1.299,0,2.457,0.787,2.457,2.453
	v4.863c0,5.233-0.095,8.522-0.14,9.079c-0.141,1.064-0.88,1.388-1.343,1.388h-1.064c-0.14,0-0.185,0.047-0.185,0.141v1.204
	c0,0.231,0.045,0.325,0.14,0.325c0.37,0,2.452-0.141,3.102-0.141c0.739,0,1.574,0.038,2.283,0.076
	c-0.312,0.74-0.611,1.507-0.903,2.343h-2.552c-0.234,0-0.436,0.471-0.495,0.673l-0.116,0.501c-0.058,0.205,0.013,0.346,0.159,0.346
	h2.607l-2.973,9.911c-1.584,5.421-3.165,7.886-4.574,7.886c-0.234,0-0.438-0.205-0.498-0.498c-0.087-0.499-0.526-1.32-1.377-1.32
	c-0.763,0-1.259,0.588-1.259,1.262c0,0.938,0.937,1.729,2.109,1.729c3.135,0,5.219-3.253,7.007-7.825
	c1.466-3.752,2.81-8.768,3.573-11.143l3.966,0.037c0.895,0,1.321,0.431,1.747,1.409c0.554,1.279,2.558,7.46,3.58,10.486l0.427,1.448
	c0.557,1.537,4.007,11.256,5.373,15.178c0.211,0.555,0.382,0.981,0.724,0.981c0.214,0,0.425-0.215,0.597-0.555
	c0.213-0.429,5.711-13.983,6.222-15.391c0.725-1.79,4.137-10.528,5.244-11.894c0.81-0.98,1.621-1.664,3.025-1.664h1.152
	c0.257,0,0.299-0.126,0.299-0.297v-1.066c0-0.212-0.043-0.297-0.299-0.297c-0.385,0-1.449,0.126-4.562,0.126
	c-2.684,0-4.645-0.126-5.028-0.126c-0.211,0-0.257,0.085-0.257,0.297v0.979c0,0.257,0.043,0.384,0.214,0.384h1.109
	c1.066,0,1.361,0.47,1.361,0.981c0,0.596-0.254,1.363-0.596,2.428c-0.638,1.877-2.257,6.78-2.686,7.932
	c-0.34,0.981-3.666,9.764-4.646,11.768c-0.98-2.602-3.452-9.935-3.962-11.555c-0.768-2.389-2.344-7.459-2.602-8.995
	c-0.126-0.598-0.173-1.108-0.173-1.449c0-0.726,0.601-1.109,1.793-1.109h2.046c0.299,0,0.339-0.17,0.339-0.384v-0.979
	c0-0.17-0.041-0.297-0.424-0.297c-0.385,0-2.304,0.126-5.883,0.126c-3.325,0-7.4-0.109-7.4-0.109
	c0.969-3.283,1.557-7.153,4.282-7.153c0.879,0,1.173,0.557,1.202,0.85c0.088,0.645,0.353,1.173,1.29,1.173
	c0.587,0,1.171-0.438,1.171-1.349c0-0.139-0.046-0.293-0.118-0.448c1.877,2.243,3.44,4.135,3.763,4.455
	c0.185,0.14,0.648,0.465,1.065,0.465c0.557,0,0.692-0.466,0.692-0.882V56.274c0-1.899-0.091-4.817,0.141-6.947
	c0.094-0.648,0.327-0.972,1.481-0.972h0.465c0.187,0,0.277-0.141,0.277-0.325v-0.972c0-0.28-0.094-0.37-0.324-0.37
	c-0.325,0-1.943,0.138-2.917,0.138c-1.483,0-3.474-0.138-3.797-0.138c-0.232,0-0.325,0.09-0.325,0.229v1.112
	c0,0.232,0.093,0.325,0.325,0.325h0.787c0.786,0,1.48,0.275,1.711,0.832c0.234,0.557,0.372,3.242,0.372,4.353
	c0.092,1.484,0.138,2.919,0.138,5.561v3.057h-0.186c-0.555-0.604-4.862-6.022-5.697-6.995c-0.97-1.158-6.298-7.874-6.437-8.059
	c-0.186-0.28-0.463-0.37-1.111-0.37c-0.557,0-1.528,0.093-2.27,0.093c-0.51,0-1.251-0.048-1.852-0.093
	c-0.603,0-1.111-0.045-1.205-0.045H100.818z M105.356,50.392h0.095c0.739,0.835,4.49,5.837,5.602,7.132
	c0.449,0.531,2.251,2.669,4.08,4.854c-0.446-0.336-1.097-0.585-1.932-0.585c-1.905,0-3.516,1.055-4.336,1.994
	c-0.648,0.718-1.157,1.511-1.612,2.354h-0.507c-0.464,0-0.973-0.51-1.11-1.575c-0.095-0.417-0.279-5.049-0.279-7.826V50.392
	L105.356,50.392z"/>
<g>
	<rect x="37.598" y="66.854" fill="#E57214" width="4.638" height="21.383"/>
	<rect x="25.62" y="66.854" fill="#E57214" width="4.349" height="21.383"/>
	<rect x="31.463" y="66.854" fill="#E57214" width="4.639" height="21.383"/>
	<path fill="#E57214" d="M13.875,68.803h0.53l0.249-0.651l0.177-0.547l0.389,1.198h1.257l-1.018,0.743l0.39,1.195l-1.018-0.738
		l-0.956,0.694l-0.007,4.648h1.26l0.391-1.198l0.389,1.198h1.258l-1.016,0.738l0.387,1.198l-1.018-0.74l-1.023,0.74l0.395-1.198
		l-1.021-0.738l0,0l0.007,12.895h6.838l0.39-1.189l-1.021-0.742h1.256l0.391-1.196l0.389,1.196h1.262l-1.021,0.742l0.388,1.189
		h1.377V66.854H13.875V68.803z M18.007,80.208L18.007,80.208l0.389,1.196h1.26l-1.021,0.738l0.391,1.196l-1.019-0.737l-1.021,0.737
		l0.392-1.196l-1.022-0.738h1.26L18.007,80.208z"/>
	<polygon fill="#E57214" points="20.723,88.24 22.737,88.24 21.729,87.507 	"/>
	<polygon fill="#E57214" points="13.877,69.306 13.877,70.549 13.958,70.19 14.173,69.524 	"/>
	<path fill="#E57214" d="M39.916,42.398c-9.773,0-18.289,5.432-22.743,13.466h45.489C58.204,47.83,49.687,42.398,39.916,42.398z"/>
	<polygon fill="#E57214" points="39.914,42.398 39.916,42.398 39.916,42.398 	"/>
	<polygon fill="#E57214" points="27.451,65.344 52.426,65.344 40.27,57.456 	"/>
	<rect x="49.863" y="66.854" fill="#E57214" width="4.493" height="21.383"/>
	<rect x="43.73" y="66.856" fill="#E57214" width="4.636" height="21.384"/>
	<rect x="13.875" y="89.751" fill="#E57214" width="10.247" height="5.675"/>
	<path fill="#E57214" d="M52.916,90.639h1.26l-1.022,0.74l0.39,1.196l-1.016-0.739l-1.018,0.739l0.389-1.196l-1.02-0.74h1.262
		l0.288-0.888h-24.95l0.287,0.888h1.26l-1.019,0.74l0.389,1.196l-1.019-0.739l-1.018,0.739l0.389-1.196l-1.018-0.74h1.26
		l0.287-0.888H25.62l0,0v5.675h13.427l0.282-0.871l-1.018-0.743h1.258l0.389-1.197l0.389,1.197h1.26l-1.016,0.743l0.281,0.871
		h13.486v-5.675h-1.73L52.916,90.639z M34.426,94.955l-1.02-0.74l-1.021,0.74l0.393-1.196l-1.02-0.742h1.258l0.391-1.194l0,0
		l0.391,1.194h1.26l-1.019,0.742L34.426,94.955z M47.331,94.955l-1.018-0.74l-1.018,0.74l0.389-1.196l-1.018-0.742h1.26l0.387-1.194
		l0.389,1.194h1.26l-1.02,0.742L47.331,94.955z"/>
	<polygon fill="#E57214" points="13.874,57.376 13.874,57.376 13.874,65.344 24.576,65.344 37.527,57.376 	"/>
	<rect x="55.851" y="89.751" fill="#E57214" width="10.104" height="5.675"/>
	<polygon fill="#E57214" points="42.916,57.376 55.195,65.344 65.958,65.344 65.958,57.376 	"/>
	<polygon fill="#E57214" points="65.955,69.358 65.696,69.545 65.955,70.337 	"/>
	<path fill="#E57214" d="M55.851,66.854V88.24h10.104V75.4l-0.944,0.686l0.393,1.198l-1.018-0.742l-1.021,0.742l0.391-1.198
		l-1.018-0.738h1.255l0.394-1.199l0.387,1.199h1.183v-4.702l-0.883-0.643l-1.021,0.74l0.39-1.197l-1.018-0.741h1.258l0.391-1.198
		l0.387,1.198h0.496v-1.948H55.851V66.854z M61.507,81.404l0.387-1.196l0,0l0.393,1.196h1.26l-1.023,0.738l0.391,1.196l-1.02-0.737
		l-1.02,0.737l0.391-1.196l-1.018-0.738H61.507z M57.783,86.309l0.389-1.198l0.391,1.198h1.258l-1.021,0.742l0.389,1.189H59.18
		l-1.009-0.733l-1.016,0.733l0.389-1.189l-1.02-0.742H57.783z"/>
	<polygon fill="#E57214" points="39.383,95.426 40.536,95.426 39.958,95.012 	"/>
</g>
<g>
	<path fill="#212F4B" stroke="#212F4B" stroke-width="0.5" d="M342.749,79.597c-0.746,0-1.36-0.054-1.92-0.454
		c-0.507-0.373-2.214-2.8-2.348-3.066c-0.213-0.348-2.106-3.067-2.427-3.414c-0.214-0.294-0.587-0.774-1.227-1.014v-0.054
		c3.414-0.747,4.934-2,4.934-5.335c0-0.986-0.507-2.187-1.387-3.04c-1.014-0.96-2.773-1.627-4.987-1.627
		c-0.48,0-2.961,0.08-4.454,0.08c-2.241,0-3.067-0.08-3.308-0.08c-0.134,0-0.16,0.053-0.16,0.187v0.667
		c0,0.106,0.026,0.187,0.16,0.187h1.066c0.667,0,0.987,0.453,1.014,1.334c0.026,0.773,0.026,2.48,0.026,4.454v2.587
		c0,2.534,0,5.041-0.053,7.682c0,0.721-0.453,0.907-1.04,0.907h-1.094c-0.134,0-0.134,0.08-0.134,0.213v0.613
		c0,0.134,0,0.214,0.214,0.214c0.293,0,0.906-0.08,3.334-0.08c2.534,0,3.2,0.08,3.494,0.08c0.267,0,0.293-0.054,0.293-0.24V79.81
		c0-0.133-0.026-0.213-0.213-0.213h-1.681c-0.4,0-0.613-0.48-0.667-1.04c-0.026-0.4-0.053-3.388-0.053-4.962v-1.493
		c0.373-0.08,0.64-0.08,0.88-0.08c1.547,0,2.188,0.72,2.881,1.547c0.319,0.373,1.6,2.294,1.707,2.48
		c0.133,0.214,1.573,2.747,1.787,3.067c0.239,0.347,0.826,1.254,1.12,1.521c0.399-0.026,1.387-0.08,2.16-0.08
		c1.174,0,1.867,0.08,2.08,0.08c0.188,0,0.214-0.08,0.214-0.24V79.81C342.962,79.703,342.936,79.597,342.749,79.597z
		 M331.333,71.168c-0.507,0-0.801-0.026-1.2-0.106v-7.549c0-0.427,0.133-0.72,0.319-0.854c0.24-0.16,0.587-0.213,0.907-0.213
		c2.214,0,3.388,0.399,4.428,1.227c0.773,0.641,1.333,1.813,1.333,3.041C337.121,67.834,336.187,71.168,331.333,71.168z"/>
	<path fill="#212F4B" stroke="#212F4B" stroke-width="0.5" d="M353.205,77.569l-0.347-0.187c-0.08-0.027-0.187,0.026-0.24,0.133
		c-0.453,0.881-1.601,1.814-3.228,1.814c-2.134,0-3.787-1.975-3.787-4.588c0-0.613,0.026-1.04,0.08-1.28h6.588
		c0.427,0,0.747-0.054,0.747-0.427c0-1.04-0.854-3.921-3.921-3.921c-1.334,0-2.667,0.24-3.814,1.413
		c-1.413,1.414-1.68,3.201-1.68,4.241c0,1.867,0.239,2.854,1.173,4.215c0.987,1.439,2.668,1.894,4.188,1.894
		c2.374,0,3.761-1.841,4.241-2.907C353.338,77.676,353.285,77.596,353.205,77.569z M348.59,69.914c1.733,0,2.054,1.761,2.054,2.374
		c0,0.24-0.213,0.374-0.72,0.374h-4.135C346.296,70.688,347.417,69.914,348.59,69.914z"/>
	<path fill="#212F4B" stroke="#212F4B" stroke-width="0.5" d="M359.259,73.941c-1.307-0.373-2.561-0.666-2.561-2.213
		c0-1.147,1.04-1.761,2.054-1.761c1.04,0,1.547,0.533,1.867,1.04l0.906,1.227c0.08,0.134,0.134,0.16,0.24,0.134l0.32-0.106
		c0.134-0.054,0.187-0.134,0.187-0.24l-0.4-1.867c-0.026-0.16-0.079-0.293-0.479-0.48c-0.48-0.239-1.174-0.56-2.454-0.56
		c-2,0-3.734,1.413-3.734,3.254c0,2.107,1.574,2.934,3.147,3.388c2.001,0.56,2.588,1.253,2.588,2.453
		c0,1.254-1.174,1.814-2.107,1.814c-1.414,0-1.787-0.667-2.32-1.654l-0.667-1.307c-0.054-0.133-0.134-0.187-0.24-0.16l-0.347,0.08
		c-0.106,0.026-0.187,0.08-0.16,0.214l0.453,2.533c0.027,0.134,0.027,0.294,0.16,0.374c0.32,0.24,1.388,0.773,2.694,0.773
		c2.267,0,4.027-1.36,4.054-3.521C362.433,75.302,361.207,74.502,359.259,73.941z"/>
	<path fill="#212F4B" stroke="#212F4B" stroke-width="0.5" d="M374.062,77.569l-0.348-0.187c-0.08-0.027-0.186,0.026-0.24,0.133
		c-0.453,0.881-1.6,1.814-3.227,1.814c-2.135,0-3.787-1.975-3.787-4.588c0-0.613,0.025-1.04,0.08-1.28h6.588
		c0.426,0,0.746-0.054,0.746-0.427c0-1.04-0.854-3.921-3.92-3.921c-1.334,0-2.668,0.24-3.814,1.413
		c-1.414,1.414-1.68,3.201-1.68,4.241c0,1.867,0.238,2.854,1.172,4.215c0.988,1.439,2.668,1.894,4.188,1.894
		c2.375,0,3.762-1.841,4.242-2.907C374.195,77.676,374.143,77.596,374.062,77.569z M369.447,69.914c1.734,0,2.055,1.761,2.055,2.374
		c0,0.24-0.213,0.374-0.721,0.374h-4.135C367.154,70.688,368.273,69.914,369.447,69.914z"/>
	<path fill="#212F4B" stroke="#212F4B" stroke-width="0.5" d="M385.797,78.876c-0.105-0.08-0.158-0.026-0.266,0.107
		c-0.133,0.187-0.508,0.399-0.934,0.399c-0.48,0-0.801-0.479-0.801-2v-1.574v-4.08c0-0.721-0.025-1.334-0.586-1.895
		c-0.373-0.347-0.881-0.72-2.135-0.72c-1.199,0-2.133,0.267-3.254,0.934c-1.094,0.64-1.84,1.653-1.84,2.507
		c0,0.613,0.213,0.854,0.641,0.854c1.094,0,1.414-0.587,1.414-1.521c0-0.479-0.24-0.88,0.133-1.227s1.199-0.56,1.732-0.56
		c0.773,0,1.309,0.239,1.602,0.586s0.32,1.041,0.373,1.494v1.707c-0.426,0.373-1.814,1.014-3.014,1.547
		c-2.107,0.934-2.668,2-2.668,3.228c0,1.681,0.961,2.214,1.602,2.214c0.586,0,1.066,0,1.572-0.16c1.201-0.4,2.082-0.96,2.641-1.627
		h0.055c0.24,1.094,0.934,1.787,1.893,1.787c1.361,0,1.867-0.907,2.08-1.308c0.16-0.267,0.107-0.399,0.027-0.479L385.797,78.876z
		 M381.85,77.97c0,0.72-1.412,1.653-2.186,1.653c-0.801,0-1.389-0.48-1.389-1.467c0-2.214,2.615-2.747,3.574-3.468V77.97z"/>
	<path fill="#212F4B" stroke="#212F4B" stroke-width="0.5" d="M393.986,68.954c-1.146,0-2.4,1.094-3.201,2.32h-0.107l-0.133-1.84
		c0-0.16-0.027-0.32-0.188-0.32c-0.105,0-0.213,0.026-0.373,0.106l-2.641,1.36c-0.16,0.08-0.213,0.134-0.213,0.24v0.16
		c0,0.106,0.053,0.133,0.213,0.187l0.508,0.267c0.746,0.4,0.959,0.667,0.959,2.027v2.507c0,1.387,0,2.32-0.025,3.201
		c0,0.347-0.188,0.507-0.588,0.507h-1.039c-0.24,0-0.293,0.053-0.293,0.239v0.454c0,0.213,0.053,0.267,0.158,0.267
		c0.16,0,1.281-0.08,2.936-0.08c1.439,0,2.666,0.08,2.826,0.08c0.107,0,0.133-0.08,0.133-0.24v-0.48
		c0-0.159-0.025-0.239-0.186-0.239h-1.254c-0.561,0-0.746-0.267-0.746-1.094v-5.602c0-0.08,0.105-0.56,0.266-0.854
		c0.453-0.854,1.146-1.12,1.574-1.12c0.346,0,0.666,0.08,0.881,0.214c0.213,0.106,0.479,0.213,0.773,0.213
		c0.479,0,1.119-0.533,1.119-1.307C395.346,69.515,394.893,68.954,393.986,68.954z"/>
	<path fill="#212F4B" stroke="#212F4B" stroke-width="0.5" d="M405.4,78.369c-0.08-0.08-0.16-0.053-0.213,0
		c-0.906,0.854-1.6,1.147-2.934,1.147c-0.906,0-2.027-0.214-2.908-1.36c-0.719-0.987-1.359-2.614-1.359-4.055
		c0-2.747,1.627-4.134,3.146-4.134c0.641,0,1.201,0.08,1.787,1.174c0.4,0.72,0.854,1.066,1.467,1.066
		c0.561,0,0.961-0.32,0.988-0.934c0-0.56-0.854-2.16-3.629-2.16c-3.52,0-5.707,3.147-5.707,6.268c0,1.2,0.213,2.321,1.201,3.628
		c1.227,1.547,2.721,1.867,4.133,1.867c1.814,0,3.521-1.014,4.295-1.894c0.133-0.16,0.107-0.24,0-0.347L405.4,78.369z"/>
	<path fill="#212F4B" stroke="#212F4B" stroke-width="0.5" d="M419.75,79.677h-0.453c-0.559,0-0.986-0.08-0.986-0.4
		c0-0.507-0.053-2.16-0.053-3.654v-1.521c0-1.439,0.053-2.8-1.148-3.921c-0.746-0.72-1.52-1.066-2.639-1.066
		c-1.174,0-2.721,0.613-3.654,1.733h-0.135v-1.707c0-1.333,0.027-6.748,0.08-7.201c0.055-0.453-0.053-0.667-0.213-0.667
		c-0.213,0-0.4,0.106-0.613,0.214l-2.773,1.467c-0.24,0.133-0.32,0.16-0.32,0.267v0.24c0,0.08,0.025,0.106,0.186,0.16l0.455,0.159
		c0.959,0.32,1.279,0.614,1.279,2.241v8.055c0,1.733,0,4.668-0.08,5.175c-0.053,0.319-0.453,0.427-0.881,0.427h-0.559
		c-0.295,0-0.4,0.026-0.4,0.213v0.48c0,0.187,0.08,0.267,0.186,0.267c0.24,0,1.254-0.08,2.588-0.08c1.227,0,2.32,0.08,2.533,0.08
		c0.16,0,0.215-0.106,0.215-0.293V79.89c0-0.16-0.107-0.213-0.295-0.213h-0.799c-0.508,0-0.588-0.24-0.588-1.094v-5.814
		c0-0.48,0.295-1.014,0.533-1.308c0.748-0.854,1.707-1.12,2.48-1.12c0.668,0,1.229,0.24,1.762,0.747
		c0.773,0.721,0.879,1.787,0.879,3.281v2.16c0,0.854,0.027,2.267,0,2.641c-0.025,0.453-0.559,0.507-1.012,0.507h-0.615
		c-0.16,0-0.186,0.08-0.186,0.213v0.454c0,0.213,0.053,0.293,0.24,0.293c0.24,0,1.199-0.08,2.506-0.08
		c1.521,0,2.375,0.08,2.561,0.08c0.16,0,0.215-0.106,0.215-0.32v-0.4C420.045,79.729,419.965,79.677,419.75,79.677z"/>
	<path fill="#212F4B" stroke="#212F4B" stroke-width="0.5" d="M445.73,75.969c-0.08-0.08-0.135-0.053-0.215,0.08
		c-1.227,1.734-3.572,3.388-6.588,3.388c-1.787,0-3.307-0.214-5.121-2.24c-2.08-2.294-2.561-5.309-2.561-6.855
		c-0.025-3.894,1.895-8.135,6.668-8.135c2.107,0,3.521,0.907,4.643,2.054c1.119,1.146,1.707,2.428,2.08,3.308
		c0.08,0.213,0.133,0.24,0.266,0.213l0.4-0.106c0.107-0.026,0.135-0.133,0.107-0.267c-0.133-0.747-0.668-4.668-0.668-5.175
		c0-0.373-0.053-0.427-0.293-0.427s-0.293,0-0.346,0.16l-0.215,0.773c-0.053,0.187-0.186,0.214-0.533,0
		c-0.959-0.56-2.961-1.467-5.387-1.467c-2.908,0-5.309,1.254-6.668,2.694c-1.922,2.026-2.721,4.587-2.721,7.067
		c0,2.561,0.934,5.655,2.854,7.469c1.6,1.467,3.602,2.454,6.748,2.454c3.762,0,6.348-2.161,7.949-4.481
		c0.08-0.133,0.025-0.187-0.055-0.24L445.73,75.969z"/>
	<path fill="#212F4B" stroke="#212F4B" stroke-width="0.5" d="M453.998,69.114c-0.881,0-2.188,0.213-3.574,1.28
		c-1.574,1.227-2.295,2.934-2.295,4.294c0,1.894,0.24,2.881,1.467,4.348c1.121,1.334,2.775,1.841,4.055,1.841
		c3.281,0,5.895-2.961,5.895-5.868c0-1.733-0.613-3.121-1.814-4.348C456.932,69.861,455.465,69.114,453.998,69.114z M453.971,80.076
		c-1.254,0-2.027-0.507-2.641-1.387c-0.854-1.227-1.014-2.24-1.014-3.734c0-2.026,0.373-3.12,1.414-4.188
		c0.641-0.693,1.334-0.854,2.053-0.854c1.361,0,3.521,1.867,3.521,4.828C457.305,77.596,455.998,80.076,453.971,80.076z"/>
	<path fill="#212F4B" stroke="#212F4B" stroke-width="0.5" d="M480.855,79.677h-0.719c-0.32,0-0.561-0.134-0.561-0.534v-5.947
		c0-2.054-0.666-2.641-1.281-3.281c-0.639-0.64-1.467-0.8-2.4-0.8c-1.6,0-3.119,1.014-3.92,2.054h-0.133
		c-0.561-1.254-1.627-2.054-3.016-2.054c-1.547,0-3.119,0.934-3.92,2.027h-0.08l-0.107-1.547c0-0.188-0.08-0.374-0.24-0.374
		c-0.105,0-0.293,0.054-0.506,0.16l-2.348,1.2c-0.053,0.026-0.16,0.134-0.16,0.214v0.213c0,0.08,0.055,0.134,0.188,0.214
		l0.561,0.293c0.639,0.347,0.746,0.827,0.746,1.36v4.748c0,0.453,0,0.934-0.027,1.387c-0.025,0.507-0.16,0.667-0.398,0.667h-0.908
		c-0.266,0-0.32,0.026-0.32,0.239v0.48c0,0.187,0.055,0.24,0.215,0.24c0.213,0,1.066-0.08,2.48-0.08c1.467,0,2.186,0.08,2.426,0.08
		c0.188,0,0.215-0.106,0.215-0.293v-0.428c0-0.187-0.027-0.239-0.268-0.239h-0.961c-0.373,0-0.533-0.267-0.533-0.693v-5.281
		c0-0.747,0.055-1.254,0.375-1.787c0.746-1.2,1.865-1.547,2.561-1.547c0.586,0,1.359,0.159,1.707,0.479
		c0.426,0.4,0.799,0.907,0.799,2.881v5.494c0,0.347-0.16,0.454-0.586,0.454h-0.773c-0.24,0-0.268,0.053-0.268,0.267v0.427
		c0,0.187,0.053,0.267,0.188,0.267c0.16,0,1.066-0.08,2.506-0.08c1.494,0,2.188,0.08,2.375,0.08c0.133,0,0.186-0.08,0.186-0.293
		v-0.428c0-0.187-0.053-0.239-0.293-0.239h-0.906c-0.4,0-0.533-0.267-0.533-0.614v-4.614c0-1.2-0.027-1.92,0.373-2.693
		c0.426-0.773,1.52-1.387,2.32-1.387s1.494,0.187,1.975,0.56c0.613,0.48,0.773,1.254,0.773,2.134v3.947c0,0.587,0,1.548-0.055,2.161
		c-0.025,0.373-0.24,0.507-0.533,0.507h-0.666c-0.293,0-0.348,0.053-0.348,0.239v0.454c0,0.187,0.055,0.267,0.215,0.267
		c0.186,0,1.146-0.08,2.48-0.08c1.279,0,2.025,0.08,2.213,0.08c0.133,0,0.188-0.08,0.188-0.267v-0.454
		C481.15,79.729,481.096,79.677,480.855,79.677z"/>
	<path fill="#212F4B" stroke="#212F4B" stroke-width="0.5" d="M490.086,69.114c-1.787,0-3.174,0.854-3.895,1.787h-0.08l-0.105-1.28
		c0-0.4-0.055-0.533-0.188-0.533c-0.188,0-0.4,0.106-0.613,0.213l-2.561,1.28c-0.133,0.054-0.188,0.106-0.188,0.187v0.214
		c0,0.08,0,0.16,0.188,0.24l0.613,0.347c0.773,0.427,0.961,0.8,0.961,1.44v8.614c0,2.614,0,4.055-0.08,4.642
		c-0.055,0.4-0.107,0.667-0.561,0.667h-1.041c-0.266,0-0.32,0.106-0.32,0.24v0.479c0,0.16,0.055,0.24,0.24,0.24
		c0.215,0,1.148-0.08,2.695-0.08c1.707,0,2.613,0.08,2.746,0.08c0.188,0,0.24-0.08,0.24-0.24v-0.453c0-0.16-0.027-0.267-0.24-0.267
		h-1.174c-0.398,0-0.586-0.134-0.586-0.881v-5.628c0.826,0.347,1.947,0.454,2.668,0.454c3.334,0,5.76-2.801,5.76-6.295
		c0-2.054-0.426-3.147-1.439-4.161C492.354,69.701,491.447,69.114,490.086,69.114z M489.365,80.023c-1.094,0-1.92-0.187-2.666-0.721
		c-0.508-0.347-0.561-0.826-0.561-1.413v-5.842c0.641-1.066,1.734-1.707,2.854-1.707c1.787,0,3.467,1.494,3.467,5.229
		C492.459,78.876,490.887,80.023,489.365,80.023z"/>
	<path fill="#212F4B" stroke="#212F4B" stroke-width="0.5" d="M508.303,79.143c-0.32,0.08-0.721,0.08-0.881,0.08
		c-0.32,0-0.613-0.106-0.693-0.934c-0.053-0.56-0.053-1.866-0.053-3.146v-1.975c0-2.613,0.133-3.307,0.16-3.547
		c0.027-0.134-0.08-0.267-0.24-0.267c-0.08,0-0.188,0.026-0.32,0.026c-0.133,0.026-0.266,0.054-0.453,0.054h-2.48
		c-0.268,0-0.32,0.026-0.32,0.239v0.454c0,0.133,0.133,0.187,0.586,0.187c0.668,0.054,1.094,0.187,1.148,0.934v6.348
		c0,0.24-0.16,0.587-0.268,0.721c-0.506,0.64-1.574,1.333-2.293,1.333c-0.721,0-1.467-0.053-2.135-1.013
		c-0.854-1.228-0.586-2.935-0.586-4.001v-1.895c0-1.573,0.08-2.827,0.105-3.067c0.027-0.187-0.105-0.319-0.293-0.319
		c-0.08,0-0.186,0.026-0.293,0.026c-0.107,0.026-0.213,0.054-0.373,0.054h-2.375c-0.24,0-0.293,0.053-0.293,0.213v0.48
		c0,0.133,0.133,0.16,0.588,0.187c0.613,0.08,0.986,0.267,1.012,1.014v3.094c0,2.934-0.053,3.814,1.041,5.228
		c0.881,1.147,1.76,1.228,2.508,1.228c1.334,0,2.881-0.827,3.627-1.867h0.053l0.215,1.547c0.025,0.267,0.133,0.32,0.238,0.32
		c0.215,0,0.375-0.054,0.535-0.107l2.801-0.933c0.105-0.027,0.158-0.08,0.133-0.24l-0.08-0.347
		C508.596,79.143,508.516,79.09,508.303,79.143z"/>
	<path fill="#212F4B" stroke="#212F4B" stroke-width="0.5" d="M517.398,69.435h-3.709l0.135-2.641c0-0.214-0.055-0.4-0.268-0.4
		c-0.16,0-0.293,0.054-0.373,0.267c-0.348,0.907-2.4,2.987-3.041,3.361c-0.32,0.187-0.48,0.267-0.48,0.479
		c0,0.214,0.16,0.32,0.4,0.32h1.627c-0.025,1.12-0.053,2.907-0.053,3.388v0.586c0,0.374-0.08,2.721-0.08,3.814
		c0,1.014,1.279,2.268,2.588,2.268c1.6,0,2.693-0.801,2.959-1.067c0.08-0.08,0.135-0.187,0.055-0.293l-0.135-0.24
		c-0.078-0.106-0.186-0.134-0.318-0.054c-0.375,0.24-1.148,0.347-1.762,0.347c-0.48,0-1.387-0.347-1.387-2.347v-2.667
		c0-1.228,0.027-2.508,0.08-3.734h3.441c0.16,0,0.213-0.08,0.24-0.214l0.266-0.934C517.639,69.567,517.559,69.435,517.398,69.435z"
		/>
	<path fill="#212F4B" stroke="#212F4B" stroke-width="0.5" d="M520.545,66.047c1.068,0,1.547-0.773,1.547-1.467
		c0-0.587-0.453-1.307-1.387-1.307c-1.066,0-1.627,0.72-1.627,1.387C519.078,65.514,519.959,66.047,520.545,66.047z"/>
	<path fill="#212F4B" stroke="#212F4B" stroke-width="0.5" d="M523.879,79.677h-1.227c-0.293,0-0.373-0.187-0.426-0.693
		c-0.027-0.294-0.027-1.254-0.027-2.294v-2.907c0-2.214,0-3.895,0.053-4.348c0.027-0.187,0-0.32-0.133-0.32
		c-0.16,0-0.293,0.054-0.506,0.16c-1.014,0.56-2.027,0.986-2.881,1.307c-0.135,0.054-0.188,0.106-0.188,0.187v0.24
		c0,0.106,0.053,0.16,0.24,0.187c1.334,0.214,1.494,0.693,1.494,1.601v3.921c0,0.8,0,1.627-0.027,2.427
		c-0.027,0.427-0.133,0.534-0.426,0.534h-1.309c-0.186,0-0.266,0.053-0.266,0.213v0.533c0,0.16,0.08,0.214,0.213,0.214
		c0.293,0,1.334-0.08,2.881-0.08c1.121,0,2.348,0.08,2.561,0.08c0.188,0,0.24-0.08,0.24-0.267v-0.454
		C524.146,79.757,524.094,79.677,523.879,79.677z"/>
	<path fill="#212F4B" stroke="#212F4B" stroke-width="0.5" d="M538.068,79.677h-0.854c-0.346,0-0.586-0.134-0.586-0.561v-6.882
		c0-0.666-0.668-2-1.467-2.533c-0.641-0.427-1.467-0.587-2.268-0.587c-1.334,0-2.881,0.987-3.654,1.947h-0.053L529,69.435
		c-0.027-0.214-0.08-0.32-0.213-0.32c-0.107,0-0.268,0.08-0.48,0.187l-2.293,1.28c-0.135,0.054-0.24,0.134-0.24,0.267v0.134
		c0,0.08,0.025,0.16,0.213,0.24l0.213,0.106c0.668,0.32,1.094,0.773,1.094,1.573v6.241c0,0.454-0.188,0.534-0.533,0.534h-0.773
		c-0.213,0-0.268,0.08-0.268,0.239v0.48c0,0.16,0.055,0.24,0.188,0.24c0.16,0,1.014-0.08,2.373-0.08c1.414,0,2.135,0.08,2.32,0.08
		c0.135,0,0.188-0.08,0.188-0.24v-0.453c0-0.187-0.053-0.267-0.268-0.267h-0.666c-0.561,0-0.641-0.16-0.641-0.881v-5.521
		c0-0.507,0.08-1.228,0.613-1.814c0.801-0.854,1.734-1.04,2.162-1.04c0.666,0,1.307,0,1.945,0.48c0.775,0.56,0.775,1.333,0.775,2.4
		v3.521c0,0.693-0.027,1.547-0.055,2.24c-0.025,0.48-0.24,0.614-0.533,0.614h-0.773c-0.268,0-0.346,0.053-0.346,0.239v0.428
		c0,0.213,0.053,0.293,0.213,0.293c0.186,0,1.039-0.08,2.4-0.08c1.52,0,2.348,0.08,2.533,0.08c0.16,0,0.213-0.106,0.213-0.293
		v-0.428C538.361,79.757,538.309,79.677,538.068,79.677z"/>
	<path fill="#212F4B" stroke="#212F4B" stroke-width="0.5" d="M549.885,71.328c0.213,0.187,0.48,0.4,0.934,0.4
		c0.613,0,1.039-0.48,1.039-0.987c0.055-0.533-0.373-1.12-1.252-1.12c-0.881,0-1.787,0.533-2.508,1.04
		c-0.268-0.32-1.334-1.547-3.361-1.547c-3.014,0-4.561,2.134-4.561,3.867c0,2.374,1.439,3.601,2.48,4.055v0.053
		c-0.934,0.347-2.4,1.254-2.4,2.534c0,0.8,0.666,1.627,1.787,1.867v0.106c-1.281,0.561-2.801,1.707-2.801,3.201
		c0,0.88,0.4,1.573,1.359,2.16c1.281,0.72,2.801,0.854,4.082,0.854c2.268,0,3.867-0.747,4.561-1.254
		c1.334-0.986,1.787-2.026,1.787-3.28c-0.027-0.641-0.16-1.707-1.307-2.561c-1.066-0.827-2.4-1.067-4.588-0.96
		c-1.787,0.106-3.121,0.187-3.121-0.907c0-0.747,0.881-1.28,1.414-1.494c0.4,0.107,0.773,0.134,1.359,0.134
		c0.881,0,2.402-0.56,3.096-1.334c0.693-0.826,0.986-1.84,0.986-2.88c0-0.907-0.188-1.494-0.4-2.027
		c0.348-0.16,0.666-0.16,0.854-0.16C549.537,71.088,549.725,71.222,549.885,71.328z M542.977,81.811l2.561-0.188
		c2.666-0.187,3.867,1.014,3.867,2.588c0.133,2.054-2.801,2.747-3.787,2.747c-1.895,0-2.854-0.134-3.734-0.747
		c-0.533-0.373-1.041-1.174-1.041-1.84C540.842,82.931,542.148,82.023,542.977,81.811z M544.523,76.742
		c-0.641,0-1.121-0.213-1.6-0.666c-0.561-0.587-0.854-1.414-0.854-2.321c0-1.014,0.105-2.24,0.959-3.147
		c0.641-0.64,1.281-0.746,1.895-0.746c0.4,0,0.934,0.24,1.279,0.587c0.48,0.533,0.721,1.227,0.721,2.4
		C546.924,74.528,546.338,76.742,544.523,76.742z"/>
</g>
<line fill="none" stroke="#212F4B" stroke-width="1.5" x1="294.032" y1="8.172" x2="294.032" y2="132.172"/>
</svg>
